# xmcd
#
# Track frame offsets: 
#        150
#        11122
#        22262
#        33335
#        44435
#        54567
#        65465
#        78625
#        88540
#        97885
#        110570
#        123045
#        134020
#        146277
#        156220
#        168595
#        178137
#        191912
#        202455
#        213040
#        222127
#        234632
#        246735
#        258310
#        270332
#        282460
#        294570
#        305387
#        316270
#        326125
#        335180
#
# Disc length: 4620 seconds
#
# Revision: 2
# Processed by: cddbd v1.4PL0 Copyright (c) Steve Scherf et al.
# Submitted via: ExactAudioCopy v0.90b3
#
DISCID=e6120a1f
DTITLE=Gene Pitney and George Jones - George Jones and Gene Pitney
DYEAR=1994
DGENRE=Country
TTITLE0=Why Baby Why
TTITLE1=Someday You'll Want Me To Want You
TTITLE2=For Me This Is Happy (Gene Pitney)
TTITLE3=That's All It Took
TTITLE4=I'm Gonna Listen TO Me (Gene Pitney)
TTITLE5=I'm A Fool To Care
TTITLE6=She Thinks I Still Care (Gene Pitney)
TTITLE7=Big Job
TTITLE8=I'm Up To My Neck In I.O.U.'s (Gene Pitney)
TTITLE9=Sweeter Than Flowers
TTITLE10=Wreck On The Highway
TTITLE11=The More I Saw Of Her (Gene Pitney)
TTITLE12=A Thousand Arms (Five Hundred Hearts) (Gene Pitney)
TTITLE13=I've Got Five Dollars And It's Saturday Night
TTITLE14=Louisiana Man
TTITLE15=Drinking From The Well Of Your Love (Gene Pitney)
TTITLE16=Life To Go (Gene Pitney)
TTITLE17=One Has My Name
TTITLE18=Mockin' Bird Hill
TTITLE19=I'd Like To See Me Stop You (Gene Pitney)
TTITLE20=I Can't Stop Loving You (Gene Pitney)
TTITLE21=Your Old Standby
TTITLE22=Won't Take Long (Gene Pitney)
TTITLE23=I've Got A New Heartache
TTITLE24=My Shoes Keep Walking Back To You
TTITLE25=I Really Don't Want To Know (Gene Pitney)
TTITLE26=As Long As I Live
TTITLE27=Born To Lose (Gene Pitney)
TTITLE28=Don't Rob Another Man's Castle
TTITLE29=Love Bug (George Jones)
TTITLE30=Y'all Come
EXTD=
EXTT0=
EXTT1=
EXTT2=
EXTT3=
EXTT4=
EXTT5=
EXTT6=
EXTT7=
EXTT8=
EXTT9=
EXTT10=
EXTT11=
EXTT12=
EXTT13=
EXTT14=
EXTT15=
EXTT16=
EXTT17=
EXTT18=
EXTT19=
EXTT20=
EXTT21=
EXTT22=
EXTT23=
EXTT24=
EXTT25=
EXTT26=
EXTT27=
EXTT28=
EXTT29=
EXTT30=
PLAYORDER=
